<svg width="32" height="32" viewBox="0 0 32 32" fill="none" xmlns="http://www.w3.org/2000/svg">
<path d="M11.9793 2.66602C8.23716 2.75128 6.05141 3.1075 4.55799 4.59574C3.25094 5.89826 2.81402 7.72926 2.66797 10.666M20.0233 2.66602C23.7654 2.75128 25.9512 3.1075 27.4446 4.59574C28.7517 5.89826 29.1886 7.72926 29.3346 10.666M20.0233 29.3327C23.7654 29.2474 25.9512 28.8912 27.4446 27.403C28.7517 26.1004 29.1886 24.2694 29.3346 21.3327M11.9793 29.3327C8.23716 29.2474 6.05141 28.8912 4.55799 27.403C3.25094 26.1004 2.81402 24.2694 2.66797 21.3327" stroke="#212121" stroke-width="1.5" stroke-linecap="round" stroke-linejoin="round"/>
<path d="M22.135 23.1976C22.4279 23.4905 22.9028 23.4905 23.1957 23.1976C23.4886 22.9048 23.4886 22.4299 23.1957 22.137L22.135 23.1976ZM19.9987 20.0007L19.4684 20.531L22.135 23.1976L22.6654 22.6673L23.1957 22.137L20.529 19.4703L19.9987 20.0007ZM21.332 15.334H22.082C22.082 11.6061 19.06 8.58398 15.332 8.58398V9.33398V10.084C18.2315 10.084 20.582 12.4345 20.582 15.334H21.332ZM15.332 9.33398V8.58398C11.6041 8.58398 8.58203 11.6061 8.58203 15.334H9.33203H10.082C10.082 12.4345 12.4325 10.084 15.332 10.084V9.33398ZM9.33203 15.334H8.58203C8.58203 19.0619 11.6041 22.084 15.332 22.084V21.334V20.584C12.4325 20.584 10.082 18.2335 10.082 15.334H9.33203ZM15.332 21.334V22.084C19.06 22.084 22.082 19.0619 22.082 15.334H21.332H20.582C20.582 18.2335 18.2315 20.584 15.332 20.584V21.334Z" fill="#212121"/>
</svg>
